# xmcd
#
# Track frame offsets:
#	150
#	20479
#	39413
#	60935
#	83982
#	108266
#	129685
#	153071
#	170728
#	188949
#	217364
#
# Disc length: 3183 seconds
#
# Revision: 1
# Processed by: cddbd v1.5.2PL0 Copyright (c) Steve Scherf et al.
# Submitted via: audiograbber 1.83.01
#
DISCID=930c6d0b
DTITLE=The Flo Kern Expression - Train Ticket
DYEAR=2012
DGENRE=New Blues
TTITLE0=Down On My Knees
TTITLE1=All Is One
TTITLE2=Baby's Gone
TTITLE3=The Door
TTITLE4=Change My Fate
TTITLE5=Down To The Water
TTITLE6=Until My Feet Hurt
TTITLE7=Million Devils
TTITLE8=We Can't Change The Weather
TTITLE9=Don't Regret
TTITLE10=Train Ticket
EXTD=
EXTT0=
EXTT1=
EXTT2=
EXTT3=
EXTT4=
EXTT5=
EXTT6=
EXTT7=
EXTT8=
EXTT9=
EXTT10=
PLAYORDER=
